<svg xmlns="http://www.w3.org/2000/svg" xmlns:xlink="http://www.w3.org/1999/xlink" width="98" height="239" viewBox="0 0 98 239">
  <defs>
    <clipPath id="clip-path">
      <rect width="98" height="239" fill="none"/>
    </clipPath>
  </defs>
  <g id="Repeat_Grid_1" data-name="Repeat Grid 1" clip-path="url(#clip-path)">
    <g transform="translate(-250 -1610)">
      <g id="Group_477" data-name="Group 477" transform="translate(0 62)">
        <rect id="Rectangle_547" data-name="Rectangle 547" width="98" height="98" rx="18" transform="translate(250 1689)" fill="#e17aa1"/>
        <g id="Group_1287" data-name="Group 1287" transform="translate(992.283 730.242)">
          <path id="Path_4311" data-name="Path 4311" d="M-676.095,1020.4l3.266-.453c1.044-.144,2.09-.269,3.129-.443a.627.627,0,0,1,.775.392,27.568,27.568,0,0,1,3.242,14.327A27.808,27.808,0,0,1-687,1060.1a27.873,27.873,0,0,1-21.5-3.691,27.873,27.873,0,0,1-12.257-18.042,27.772,27.772,0,0,1,19.22-31.942,27.3,27.3,0,0,1,21.17,2.045.7.7,0,0,1,.434.864c-.288,1.89-.53,3.788-.792,5.681-.026.189-.068.376-.113.615a21.274,21.274,0,0,0-17.917-3.394,20.594,20.594,0,0,0-11.976,8.1,21.372,21.372,0,0,0,2.05,27.814,21.451,21.451,0,0,0,27.56,2.452,21.572,21.572,0,0,0,5.818-6.112,21.143,21.143,0,0,0,3.028-7.925,21.387,21.387,0,0,0-.269-8.433,21.592,21.592,0,0,0-3.549-7.729Z" transform="translate(0 -23.126)" fill="#fff"/>
          <path id="Path_4312" data-name="Path 4312" d="M-628.936,1072.53l-4.492,4.479a11.447,11.447,0,0,0-10.017-1.733,11.225,11.225,0,0,0-6.467,4.748,11.584,11.584,0,0,0,1.77,14.906,11.6,11.6,0,0,0,15.042.66,11.665,11.665,0,0,0,2.329-15.953l4.448-4.469a17.778,17.778,0,0,1-.862,23.568,17.871,17.871,0,0,1-12.47,5.649,17.87,17.87,0,0,1-12.808-4.833,17.939,17.939,0,0,1-.973-25.29A17.894,17.894,0,0,1-628.936,1072.53Z" transform="translate(-53.221 -76.529)" fill="#fff"/>
          <path id="Path_4313" data-name="Path 4313" d="M-582.755,1132.768l-5.512,5.5,2.408,2.4,5.465-5.513a7.966,7.966,0,0,1-1.139,10.256,8.081,8.081,0,0,1-11.093.053,8.09,8.09,0,0,1-.729-11.072A8.047,8.047,0,0,1-582.755,1132.768Z" transform="translate(-106.345 -129.635)" fill="#fff"/>
          <path id="Path_4314" data-name="Path 4314" d="M-432.241,977.758c.587,1.579,1.165,3.069,1.688,4.577a1.286,1.286,0,0,0,.874.9c1.523.53,3.03,1.111,4.61,1.7-.144.168-.245.3-.358.42q-3.537,3.542-7.085,7.072a1.525,1.525,0,0,1-.8.4c-2.468.358-4.942.693-7.413,1.031-.132.018-.269.021-.473.037l.4-3.027c.22-1.623.435-3.247.677-4.866a1.345,1.345,0,0,1,.329-.711q3.6-3.641,7.235-7.256C-432.478,977.949-432.385,977.885-432.241,977.758Z" transform="translate(-236.249 0)" fill="#fff"/>
        </g>
      </g>
      <g id="Group_478" data-name="Group 478">
        <rect id="Rectangle_547-2" data-name="Rectangle 547" width="98" height="98" rx="18" transform="translate(250 1610)" fill="#a8b5eb"/>
        <g id="vision" transform="translate(270.998 1642.168)">
          <path id="Path_4300" data-name="Path 4300" d="M-1500.64,1352.618c.286-1.242.49-2.515.879-3.72a11.969,11.969,0,0,1,3.211-5.044c1.582-1.5,3.186-2.976,4.794-4.443a11.327,11.327,0,0,1,6.266-2.838,1.359,1.359,0,0,0,.735-.373c.84-.85,1.588-1.821,2.482-2.592,2.423-2.09,5.623-1.174,6.875,1.9.028.068.068.136.124.249a4.078,4.078,0,0,1,4.432,0c.118-.263.224-.525.349-.773a4.231,4.231,0,0,1,3.245-2.461,4.231,4.231,0,0,1,3.818,1.417c.708.747,1.386,1.53,2.1,2.271a1.168,1.168,0,0,0,.641.347,11.22,11.22,0,0,1,6.53,3.012c1.814,1.715,3.748,3.3,5.413,5.177a14.087,14.087,0,0,1-.649,18.764,11.552,11.552,0,0,1-17.256-.509,13.465,13.465,0,0,1-3.279-7.161c-.016-.111-.042-.22-.075-.394a5.919,5.919,0,0,1-6.049.029c-.263,1.015-.463,2.02-.781,2.978-1.978,5.952-7.786,9.583-13.533,8.488a12.861,12.861,0,0,1-10.026-10.494c-.094-.494-.164-.994-.246-1.49Zm20.694,1.181c.007-5.044-3.725-9.126-8.36-9.143s-8.382,4.04-8.422,9.09c-.04,4.984,3.752,9.129,8.374,9.154s8.4-4.077,8.409-9.1Zm22.184-9.143c-4.626,0-8.392,4.088-8.4,9.114s3.775,9.124,8.391,9.13,8.4-4.123,8.4-9.128c0-5.022-3.772-9.113-8.4-9.113Zm-12.578,4.987a2.83,2.83,0,0,0-.694-2.071,2.829,2.829,0,0,0-1.962-.96,2.812,2.812,0,0,0-2.761,2.861,2.845,2.845,0,0,0,2.605,3.033,2.8,2.8,0,0,0,2.01-.839,2.8,2.8,0,0,0,.8-2.025Z" transform="translate(1500.642 -1332.48)" fill="#fff"/>
          <path id="Path_4301" data-name="Path 4301" d="M-1450.591,1438.146a4.708,4.708,0,0,1,4.451-4.392,1.171,1.171,0,0,1,.877.247,1.17,1.17,0,0,1,.434.8,1.138,1.138,0,0,1-1.087,1.163,2.454,2.454,0,0,0-2.457,2.447,1.107,1.107,0,0,1-.38.825,1.107,1.107,0,0,1-.869.263C-1450.258,1439.437-1450.618,1438.934-1450.591,1438.146Z" transform="translate(1456.909 -1417.443)" fill="#fff"/>
          <path id="Path_4302" data-name="Path 4302" d="M-1234.979,1438.178a4.719,4.719,0,0,1,4.431-4.424,1.148,1.148,0,0,1,1.3.875,1.06,1.06,0,0,1-.642,1.243,3.712,3.712,0,0,1-.748.145,2.389,2.389,0,0,0-2.08,2.175c-.056.572-.2,1.084-.822,1.276a1.135,1.135,0,0,1-1.08-.243A1.134,1.134,0,0,1-1234.979,1438.178Z" transform="translate(1273.174 -1417.442)" fill="#fff"/>
        </g>
      </g>
    </g>
  </g>
</svg>
