<svg id="Group_518" data-name="Group 518" xmlns="http://www.w3.org/2000/svg" width="39.616" height="39.623" viewBox="0 0 39.616 39.623">
  <path id="Path_357" data-name="Path 357" d="M-514.026,556.058a8.08,8.08,0,0,1-1.4-.7,2.929,2.929,0,0,1-1.057-2.238c-.046-.652-.009-1.309-.009-1.99h9.93a19.488,19.488,0,0,1-.159,2.755,2.688,2.688,0,0,1-2.065,2.084c-.1.028-.195.059-.292.089Z" transform="translate(531.358 -516.435)" fill="#0ec2a8"/>
  <path id="Path_358" data-name="Path 358" d="M-326.491,396.589a1.483,1.483,0,0,1-1.6.938c-.927-.041-1.856-.006-2.784-.011A1.257,1.257,0,0,1-332.2,396.3a1.248,1.248,0,0,1,1.329-1.255c.928,0,1.858.031,2.784-.011a1.484,1.484,0,0,1,1.6.939Z" transform="translate(366.107 -376.468)" fill="#0ec2a8"/>
  <path id="Path_359" data-name="Path 359" d="M-564,319.322h-10.073c-.025-.088-.051-.171-.071-.255a5.2,5.2,0,0,0-1.939-2.982,11.442,11.442,0,0,1-4.283-6.91,11.547,11.547,0,0,1,9.266-13.594,11.451,11.451,0,0,1,13.3,8.739,11.156,11.156,0,0,1-3.878,11.531,6.461,6.461,0,0,0-2.2,3.008C-563.917,319.007-563.956,319.156-564,319.322Zm-4.358-19.8a1.293,1.293,0,0,0-1.491,1.211A1.286,1.286,0,0,0-568.445,302a4.546,4.546,0,0,1,4.374,4.452,1.272,1.272,0,0,0,1.265,1.327A1.273,1.273,0,0,0-561.6,306.4,7.051,7.051,0,0,0-568.359,299.525Z" transform="translate(588.829 -287.14)" fill="#0ec2a8"/>
  <path id="Path_360" data-name="Path 360" d="M-478.133,218.325c0,.529.007,1.057,0,1.586a1.249,1.249,0,0,1-1.238,1.27,1.247,1.247,0,0,1-1.233-1.274q-.013-1.586,0-3.172a1.231,1.231,0,0,1,1.237-1.264,1.241,1.241,0,0,1,1.234,1.269C-478.126,217.267-478.133,217.8-478.133,218.325Z" transform="translate(499.178 -215.47)" fill="#0ec2a8"/>
  <path id="Path_361" data-name="Path 361" d="M-657.364,397.592c-.529,0-1.057.007-1.586,0a1.243,1.243,0,0,1-1.273-1.23,1.23,1.23,0,0,1,1.258-1.242q1.585-.015,3.171,0a1.246,1.246,0,0,1,1.279,1.228,1.248,1.248,0,0,1-1.264,1.243C-656.307,397.6-656.836,397.592-657.364,397.592Z" transform="translate(660.223 -376.543)" fill="#0ec2a8"/>
  <path id="Path_362" data-name="Path 362" d="M-602.91,271.415a1.309,1.309,0,0,1-.734,1.232,1.1,1.1,0,0,1-1.3-.169c-.84-.8-1.664-1.618-2.46-2.463a1.189,1.189,0,0,1,.086-1.648,1.19,1.19,0,0,1,1.649-.068c.842.8,1.66,1.623,2.457,2.465A1.977,1.977,0,0,1-602.91,271.415Z" transform="translate(613.124 -262.569)" fill="#0ec2a8"/>
  <path id="Path_363" data-name="Path 363" d="M-372.3,267.957a1.3,1.3,0,0,1,1.249.734,1.115,1.115,0,0,1-.173,1.3q-1.186,1.247-2.432,2.435a1.189,1.189,0,0,1-1.677-.066,1.2,1.2,0,0,1-.041-1.68c.785-.819,1.587-1.623,2.412-2.4A2.118,2.118,0,0,1-372.3,267.957Z" transform="translate(405.105 -262.532)" fill="#0ec2a8"/>
  <path id="Path_364" data-name="Path 364" d="M-374.285,499.951a2.989,2.989,0,0,1,.728.411c.77.724,1.51,1.48,2.249,2.236a1.225,1.225,0,0,1,.016,1.767,1.219,1.219,0,0,1-1.766-.027q-1.146-1.124-2.269-2.272a1.163,1.163,0,0,1-.248-1.357A1.315,1.315,0,0,1-374.285,499.951Z" transform="translate(405.101 -470.546)" fill="#0ec2a8"/>
  <path id="Path_365" data-name="Path 365" d="M-606.331,504.809a1.313,1.313,0,0,1-1.241-.741,1.116,1.116,0,0,1,.174-1.3q1.187-1.246,2.433-2.436a1.2,1.2,0,0,1,1.679.069,1.194,1.194,0,0,1,.06,1.651q-1.183,1.25-2.436,2.432A2.154,2.154,0,0,1-606.331,504.809Z" transform="translate(613.131 -470.609)" fill="#0ec2a8"/>
</svg>
