<svg xmlns="http://www.w3.org/2000/svg" width="95.795" height="79.884" viewBox="0 0 95.795 79.884">
  <g id="Group_2111" data-name="Group 2111" transform="translate(891.666 -380)">
    <g id="Group_2110" data-name="Group 2110" transform="translate(-891.666 380)">
      <g id="Group_2107" data-name="Group 2107" transform="translate(0.044 71.97)">
        <path id="Path_4452" data-name="Path 4452" d="M-887.6,674.363a3.765,3.765,0,0,1-1.952-.532,3.907,3.907,0,0,1-1.419-1.437,3.877,3.877,0,0,1-.521-1.97,3.848,3.848,0,0,1,.521-1.964,3.924,3.924,0,0,1,1.419-1.431,3.764,3.764,0,0,1,1.952-.532,3.789,3.789,0,0,1,1.568.337,4.021,4.021,0,0,1,1.319.952l-.414.367a3.353,3.353,0,0,0-1.118-.828,3.214,3.214,0,0,0-1.354-.3,3.234,3.234,0,0,0-1.68.456,3.4,3.4,0,0,0-1.224,1.236,3.321,3.321,0,0,0-.455,1.7,3.319,3.319,0,0,0,.455,1.7,3.4,3.4,0,0,0,1.224,1.236,3.231,3.231,0,0,0,1.68.455,3.241,3.241,0,0,0,1.437-.331,3.443,3.443,0,0,0,1.165-.922l.425.331a3.855,3.855,0,0,1-1.349,1.082A3.8,3.8,0,0,1-887.6,674.363Z" transform="translate(891.489 -666.496)" fill="#3f1626"/>
        <path id="Path_4453" data-name="Path 4453" d="M-818.878,672.328l-.911,1.952h-.592l3.62-7.784,3.419,7.784h-.58l-.863-1.952Zm2.094-4.519-1.845,3.987h3.608Z" transform="translate(838.244 -666.496)" fill="#3f1626"/>
        <path id="Path_4454" data-name="Path 4454" d="M-746.056,668.034v6.246h-.533V666.5l5.323,6.365v-6.27h.533v7.819Z" transform="translate(782.989 -666.496)" fill="#3f1626"/>
        <path id="Path_4455" data-name="Path 4455" d="M-676.053,672.328l-.911,1.952h-.592l3.62-7.784,3.419,7.784h-.58l-.863-1.952Zm2.094-4.519L-675.8,671.8h3.608Z" transform="translate(731.297 -666.496)" fill="#3f1626"/>
        <path id="Path_4456" data-name="Path 4456" d="M-601.6,674.562h-2.212v-7.689h2.212a3.776,3.776,0,0,1,1.514.3,3.5,3.5,0,0,1,1.207.857,3.792,3.792,0,0,1,.746,1.219,4.079,4.079,0,0,1,.26,1.455,4.076,4.076,0,0,1-.26,1.455,3.926,3.926,0,0,1-.746,1.23,3.436,3.436,0,0,1-1.207.869A3.775,3.775,0,0,1-601.6,674.562Zm-1.68-.533h1.68a2.98,2.98,0,0,0,2.331-1.005,3.1,3.1,0,0,0,.633-1.047,3.673,3.673,0,0,0,.218-1.272,3.637,3.637,0,0,0-.218-1.26,3.107,3.107,0,0,0-.633-1.047,3.038,3.038,0,0,0-2.331-.982h-1.68Z" transform="translate(676.078 -666.778)" fill="#3f1626"/>
        <path id="Path_4457" data-name="Path 4457" d="M-536.85,672.328l-.911,1.952h-.591l3.62-7.784,3.419,7.784h-.58l-.863-1.952Zm2.093-4.519L-536.6,671.8h3.608Z" transform="translate(627.063 -666.496)" fill="#3f1626"/>
      </g>
      <g id="Group_2108" data-name="Group 2108" transform="translate(0.067 48.074)">
        <path id="Path_4458" data-name="Path 4458" d="M-876.284,577.8v.889h-2.668V577.8a1.716,1.716,0,0,0-.52-1.258,1.714,1.714,0,0,0-1.258-.52h-6.224a1.713,1.713,0,0,0-1.258.52,1.716,1.716,0,0,0-.52,1.258v6.224a1.715,1.715,0,0,0,.52,1.258,1.713,1.713,0,0,0,1.258.52h6.224a1.714,1.714,0,0,0,1.258-.52,1.715,1.715,0,0,0,.52-1.258v-.89h2.668v.89a4.283,4.283,0,0,1-1.3,3.143,4.281,4.281,0,0,1-3.143,1.3h-6.224a4.283,4.283,0,0,1-3.143-1.3,4.284,4.284,0,0,1-1.3-3.143V577.8a4.283,4.283,0,0,1,1.3-3.143,4.283,4.283,0,0,1,3.143-1.3h6.224a4.281,4.281,0,0,1,3.143,1.3A4.282,4.282,0,0,1-876.284,577.8Z" transform="translate(891.4 -572.853)" fill="#3f1626"/>
        <path id="Path_4459" data-name="Path 4459" d="M-785.057,584.315l-1.539,2.667h-3.085l7.478-12.946,1.538-2.667,1.538,2.667,7.478,12.946h-3.086l-1.538-2.667Zm7.247-2.668-2.854-4.944-2.854,4.944Z" transform="translate(815.234 -571.369)" fill="#3f1626"/>
        <path id="Path_4460" data-name="Path 4460" d="M-673.682,579.682v8.785h-2.668V573.351h10.67a4.281,4.281,0,0,1,3.143,1.3,4.283,4.283,0,0,1,1.3,3.143,4.283,4.283,0,0,1-1.3,3.143,4.281,4.281,0,0,1-3.143,1.3h-1.672l6.224,6.224h-3.77Zm0-3.663v3.557h8a1.714,1.714,0,0,0,1.258-.52,1.715,1.715,0,0,0,.52-1.258,1.715,1.715,0,0,0-.52-1.258,1.714,1.714,0,0,0-1.258-.52Z" transform="translate(730.372 -572.853)" fill="#3f1626"/>
        <path id="Path_4461" data-name="Path 4461" d="M-555.481,573.351v2.667h-12.448v3.557h12.448v2.667h-12.448V585.8h12.448v2.667H-570.6V573.351Z" transform="translate(651.186 -572.853)" fill="#3f1626"/>
      </g>
      <g id="Group_2109" data-name="Group 2109" transform="translate(0)">
        <path id="Path_4462" data-name="Path 4462" d="M-667.819,403.166c-5.042,7.07-6.16,13.294-5.3,18.513h-2.409V380.208h22.2c.117,2.995-1.073,5.933-2.859,8.754C-659.507,394.193-664.877,399.035-667.819,403.166Z" transform="translate(729.826 -380.156)" fill="#3f1626"/>
        <path id="Path_4463" data-name="Path 4463" d="M-601.245,400.946a11.71,11.71,0,0,1,3.49,8.535,11.742,11.742,0,0,1-3.573,8.622,11.76,11.76,0,0,1-8.626,3.576h-17.093a6.5,6.5,0,0,1,4.2-2.255,8.884,8.884,0,0,1,2.326,0q.317.034.634.079a10.775,10.775,0,0,0,4.045.09c4.555-1.2,2.054-4.249,2.054-4.249-1.76-1.631-.649-2.345-.227-2.53,2.564-1.167.956-2.625-.933-3.033,4.226-1.258,2.742-2.342,2.742-2.342-.695-.491-1.635-2.009-.347-2.33,4.136-1.02,2.972-2.67,2.5-3.165-.6-.638-4.815-6.334-4.43-7.818,1.435-5.51,1.8-9.336-.744-13.917h5.272a11.76,11.76,0,0,1,8.626,3.576,11.742,11.742,0,0,1,3.573,8.622A11.719,11.719,0,0,1-601.245,400.946Z" transform="translate(693.522 -380.156)" fill="#3f1626"/>
        <path id="Path_4464" data-name="Path 4464" d="M-871.1,427.255a1.543,1.543,0,0,1-2.315-.44,2.509,2.509,0,0,1,.184-2.786,1.635,1.635,0,0,1,1.5-.667,1.61,1.61,0,0,1,1.345,1.109A2.42,2.42,0,0,1-871.1,427.255Z" transform="translate(878.255 -412.46)" fill="#3f1626"/>
        <path id="Path_4465" data-name="Path 4465" d="M-853.078,465.955a.415.415,0,0,1-.6.074.408.408,0,0,1-.054-.576.388.388,0,0,1,.565-.062A.388.388,0,0,1-853.078,465.955Z" transform="translate(863.329 -443.868)" fill="#3f1626"/>
        <path id="Path_4466" data-name="Path 4466" d="M-876.769,391.6a1.579,1.579,0,0,0-2.672-.153,2.427,2.427,0,0,0,.235,3.1,1.552,1.552,0,0,0,2.508-.318A2.363,2.363,0,0,0-876.769,391.6Zm0,0a1.579,1.579,0,0,0-2.672-.153,2.427,2.427,0,0,0,.235,3.1,1.552,1.552,0,0,0,2.508-.318A2.363,2.363,0,0,0-876.769,391.6Zm19.3-11.6v17.1H-872.49V380h-19.176v41.521h19.176v-17.1h15.019v17.1h9.135V380Zm-25.012,28.68c-.431,1.606-.746,5.708-1.112,7.331-.02.094-.051.184-.08.275-.031.006-.065.009-.1.014a2.652,2.652,0,0,1-.145-.709c.252-3.453.519-9.368.783-12.821.006-.051.011-.1.017-.153a.322.322,0,0,1,.051-.006c.065.275.128.553.19.831.125.553.2,1.124.377,1.663A6.163,6.163,0,0,1-882.482,408.68Zm2.505,7.793-.074-.009c-.57-2.559-1.14-7.583-1.711-10.143-.3-1.339-.545-2.692-.913-4.012a11.007,11.007,0,0,0-.919-1.994c-.735-1.427-1.49-2.843-2.244-4.261a.539.539,0,0,0-.269-.258,2.686,2.686,0,0,1-1.793-2.667,4.013,4.013,0,0,1,.238-1.237,1.3,1.3,0,0,0-.034-1.129c-.247-.445-.548-.862-.826-1.291-.071-.108-.148-.213-.221-.318.374-.324.621-.309.9.017a7.493,7.493,0,0,0,.613.661,1.444,1.444,0,0,0,1.438.375,2.359,2.359,0,0,1,2.783,1.81,3.172,3.172,0,0,1-1.515,3.685c.031.077.057.159.094.236.746,1.447,1.5,2.891,2.233,4.343a.584.584,0,0,0,.445.349c.173.037.34.1.513.148.519.15.522.147.556.675.258,3.875.516,10.219.763,14.1A6.772,6.772,0,0,1-879.977,416.473Zm3.081-21.02a.8.8,0,0,1-.3.153c-.442.057-.61.383-.789.727-.706,1.33-1.43,2.655-2.136,3.986-.088.162-.168.235-.363.17-.357-.119-.724-.216-1.149-.34.962-1.512,1.892-2.979,2.837-4.463a2.939,2.939,0,0,1-1.736-2,.386.386,0,0,0-.216-.207.606.606,0,0,1-.443-.6.653.653,0,0,1,.42-.593.558.558,0,0,0,.247-.3,2.826,2.826,0,0,1,.905-1.418,2.258,2.258,0,0,1,3.1.187A3.084,3.084,0,0,1-876.9,395.454Zm-2.545-4a2.427,2.427,0,0,0,.235,3.1,1.552,1.552,0,0,0,2.508-.318,2.363,2.363,0,0,0-.071-2.627A1.579,1.579,0,0,0-879.441,391.45Z" transform="translate(891.666 -380)" fill="#3f1626"/>
      </g>
    </g>
  </g>
</svg>
