<svg xmlns="http://www.w3.org/2000/svg" xmlns:xlink="http://www.w3.org/1999/xlink" width="63.808" height="63.809" viewBox="0 0 63.808 63.809">
  <defs>
    <filter id="Rectangle_1714" x="0" y="0" width="63.808" height="63.809" filterUnits="userSpaceOnUse">
      <feOffset dy="3" input="SourceAlpha"/>
      <feGaussianBlur stdDeviation="3" result="blur"/>
      <feFlood flood-opacity="0.161"/>
      <feComposite operator="in" in2="blur"/>
      <feComposite in="SourceGraphic"/>
    </filter>
    <clipPath id="clip-path">
      <rect id="Rectangle_345" data-name="Rectangle 345" width="18.867" height="18.868" fill="#3f1626"/>
    </clipPath>
  </defs>
  <g id="Group_2238" data-name="Group 2238" transform="translate(-384.508 -834.45)">
    <g transform="matrix(1, 0, 0, 1, 384.51, 834.45)" filter="url(#Rectangle_1714)">
      <rect id="Rectangle_1714-2" data-name="Rectangle 1714" width="45.808" height="45.809" rx="5" transform="translate(9 6)" fill="#fff"/>
    </g>
    <g id="Group_167" data-name="Group 167" transform="translate(406.844 853.783)" clip-path="url(#clip-path)">
      <path id="Path_340" data-name="Path 340" d="M259.219,182.406H255v12.972h4.219Z" transform="translate(-255 -176.51)" fill="#3f1626"/>
      <path id="Path_341" data-name="Path 341" d="M271.066,182.559c-.044-.014-.087-.03-.134-.043s-.114-.023-.172-.032a3.736,3.736,0,0,0-.757-.077,5.863,5.863,0,0,0-4.534,2.48v-2.48h-4.22v12.972h4.22V188.3s3.189-4.44,4.534-1.179v8.255h4.218v-8.754A4.206,4.206,0,0,0,271.066,182.559Z" transform="translate(-255.354 -176.51)" fill="#3f1626"/>
      <path id="Path_342" data-name="Path 342" d="M257.064,180.283A2.064,2.064,0,1,0,255,178.22,2.063,2.063,0,0,0,257.064,180.283Z" transform="translate(-255 -176.156)" fill="#3f1626"/>
    </g>
  </g>
</svg>
