<svg xmlns="http://www.w3.org/2000/svg" xmlns:xlink="http://www.w3.org/1999/xlink" width="48" height="48" viewBox="0 0 48 48">
  <defs>
    <filter id="Rectangle_1792" x="0" y="0" width="48" height="48" filterUnits="userSpaceOnUse">
      <feOffset dy="3" input="SourceAlpha"/>
      <feGaussianBlur stdDeviation="3" result="blur"/>
      <feFlood flood-opacity="0.161"/>
      <feComposite operator="in" in2="blur"/>
      <feComposite in="SourceGraphic"/>
    </filter>
  </defs>
  <g id="Group_2233" data-name="Group 2233" transform="translate(-241 -610)">
    <g transform="matrix(1, 0, 0, 1, 241, 610)" filter="url(#Rectangle_1792)">
      <rect id="Rectangle_1792-2" data-name="Rectangle 1792" width="30" height="30" rx="4" transform="translate(9 6)" fill="#fff"/>
    </g>
    <path id="Icon_awesome-phone-alt" data-name="Icon awesome-phone-alt" d="M11.515,8.376,8.922,7.265a.556.556,0,0,0-.648.16l-1.148,1.4a8.581,8.581,0,0,1-4.1-4.1l1.4-1.148a.554.554,0,0,0,.16-.648L3.475.336A.559.559,0,0,0,2.838.014L.431.57A.556.556,0,0,0,0,1.112,10.741,10.741,0,0,0,10.742,11.853a.556.556,0,0,0,.542-.431l.556-2.408A.562.562,0,0,0,11.515,8.376Z" transform="translate(259 625)" fill="#3f1626"/>
  </g>
</svg>
