<svg id="Group_493" data-name="Group 493" xmlns="http://www.w3.org/2000/svg" width="135.391" height="22.686" viewBox="0 0 135.391 22.686">
  <path id="Icon_fa-solid-star" data-name="Icon fa-solid-star" d="M14.667.8a1.419,1.419,0,0,0-2.552,0L9.267,6.659,2.905,7.6a1.418,1.418,0,0,0-.789,2.41l4.616,4.568L5.643,21.03a1.421,1.421,0,0,0,2.069,1.489L13.4,19.484l5.684,3.035a1.421,1.421,0,0,0,2.069-1.489l-1.094-6.455,4.616-4.568a1.418,1.418,0,0,0-.789-2.41l-6.366-.939Z" transform="translate(-1.698)" fill="#fabb05"/>
  <path id="Icon_fa-solid-star-2" data-name="Icon fa-solid-star" d="M14.667.8a1.419,1.419,0,0,0-2.552,0L9.267,6.659,2.905,7.6a1.418,1.418,0,0,0-.789,2.41l4.616,4.568L5.643,21.03a1.421,1.421,0,0,0,2.069,1.489L13.4,19.484l5.684,3.035a1.421,1.421,0,0,0,2.069-1.489l-1.094-6.455,4.616-4.568a1.418,1.418,0,0,0-.789-2.41l-6.366-.939Z" transform="translate(26.301)" fill="#fabb05"/>
  <path id="Icon_fa-solid-star-3" data-name="Icon fa-solid-star" d="M14.667.8a1.419,1.419,0,0,0-2.552,0L9.267,6.659,2.905,7.6a1.418,1.418,0,0,0-.789,2.41l4.616,4.568L5.643,21.03a1.421,1.421,0,0,0,2.069,1.489L13.4,19.484l5.684,3.035a1.421,1.421,0,0,0,2.069-1.489l-1.094-6.455,4.616-4.568a1.418,1.418,0,0,0-.789-2.41l-6.366-.939Z" transform="translate(54.301)" fill="#fabb05"/>
  <path id="Icon_fa-solid-star-4" data-name="Icon fa-solid-star" d="M14.667.8a1.419,1.419,0,0,0-2.552,0L9.267,6.659,2.905,7.6a1.418,1.418,0,0,0-.789,2.41l4.616,4.568L5.643,21.03a1.421,1.421,0,0,0,2.069,1.489L13.4,19.484l5.684,3.035a1.421,1.421,0,0,0,2.069-1.489l-1.094-6.455,4.616-4.568a1.418,1.418,0,0,0-.789-2.41l-6.366-.939Z" transform="translate(82.3)" fill="#fabb05"/>
  <path id="Icon_fa-solid-star-5" data-name="Icon fa-solid-star" d="M14.667.8a1.419,1.419,0,0,0-2.552,0L9.267,6.659,2.905,7.6a1.418,1.418,0,0,0-.789,2.41l4.616,4.568L5.643,21.03a1.421,1.421,0,0,0,2.069,1.489L13.4,19.484l5.684,3.035a1.421,1.421,0,0,0,2.069-1.489l-1.094-6.455,4.616-4.568a1.418,1.418,0,0,0-.789-2.41l-6.366-.939Z" transform="translate(110.299)" fill="#fabb05"/>
</svg>
