<svg xmlns="http://www.w3.org/2000/svg" width="41.645" height="32.39" viewBox="0 0 41.645 32.39">
  <path id="Icon_awesome-cc-visa" data-name="Icon awesome-cc-visa" d="M33.988,16.659s.549,2.69.672,3.253H32.246c.239-.643,1.157-3.145,1.157-3.145-.014.022.239-.658.383-1.077l.2.969ZM41.645,5.72V31.17a3.471,3.471,0,0,1-3.47,3.47H3.47A3.471,3.471,0,0,1,0,31.17V5.72A3.471,3.471,0,0,1,3.47,2.25h34.7A3.471,3.471,0,0,1,41.645,5.72ZM11.026,23.882,15.6,12.661H12.522L9.681,20.325,9.37,18.77,8.358,13.608a1.209,1.209,0,0,0-1.316-.947H2.364l-.051.224a11.473,11.473,0,0,1,3.051,1.236l2.588,9.76Zm6.825.014,1.822-11.235H16.766L14.952,23.9Zm10.115-3.673c.014-1.28-.766-2.256-2.437-3.058-1.019-.513-1.641-.86-1.641-1.388.014-.477.528-.969,1.67-.969a4.982,4.982,0,0,1,2.162.427l.26.123.4-2.429a7.22,7.22,0,0,0-2.6-.477c-2.87,0-4.887,1.533-4.9,3.716-.022,1.612,1.446,2.509,2.545,3.051,1.121.549,1.5.911,1.5,1.4-.014.752-.911,1.1-1.742,1.1a5.792,5.792,0,0,1-2.726-.6l-.383-.181-.4,2.523a8.872,8.872,0,0,0,3.239.6C25.956,24.063,27.944,22.552,27.966,20.224ZM38.174,23.9,35.832,12.661H33.583a1.43,1.43,0,0,0-1.518.933L27.749,23.9H30.8s.5-1.388.607-1.685h3.731c.087.4.347,1.685.347,1.685Z" transform="translate(0 -2.25)" fill="#fcfcfc"/>
</svg>
