<svg xmlns="http://www.w3.org/2000/svg" width="21.959" height="25.94" viewBox="0 0 21.959 25.94">
  <path id="Icon_awesome-paypal" data-name="Icon awesome-paypal" d="M6.373,17.309c-.2,1.1-1,6.218-1.23,7.665-.017.1-.057.143-.172.143H.7a.7.7,0,0,1-.692-.8L3.364,3.05a1.162,1.162,0,0,1,1.144-.967c8.711,0,9.444-.212,11.669.652,3.438,1.333,3.752,4.547,2.517,8.025-1.23,3.581-4.147,5.119-8.014,5.165C8.2,15.965,6.7,15.525,6.373,17.309ZM20.427,9.079c-.1-.074-.143-.1-.172.074a13.387,13.387,0,0,1-.5,1.922c-2.282,6.509-8.609,5.943-11.7,5.943a.575.575,0,0,0-.623.538c-1.293,8.031-1.55,9.707-1.55,9.707A.609.609,0,0,0,6.487,28H10.12a1.026,1.026,0,0,0,1-.852c.04-.309-.063.349.824-5.222.263-1.258.818-1.127,1.676-1.127,4.061,0,7.23-1.647,8.174-6.423.372-1.991.263-4.084-1.361-5.3Z" transform="translate(-0.006 -2.06)" fill="#fcfcfc"/>
</svg>
