<svg xmlns="http://www.w3.org/2000/svg" width="17.351" height="17.351" viewBox="0 0 17.351 17.351">
  <path id="Icon_akar-star" data-name="Icon akar-star" d="M10.871,3.549a.862.862,0,0,1,1.607,0l1.8,4.974a.859.859,0,0,0,.8.549H19.49a.845.845,0,0,1,.53,1.512L16.88,13.41a.84.84,0,0,0-.279.947l1.147,4.861a.855.855,0,0,1-1.308.971l-4.266-2.707a.868.868,0,0,0-1,0L6.91,20.189A.855.855,0,0,1,5.6,19.218l1.147-4.861a.84.84,0,0,0-.279-.947l-3.14-2.826a.845.845,0,0,1,.529-1.512H8.272a.858.858,0,0,0,.8-.549l1.8-4.974Z" transform="translate(-2.999 -3)" fill="#ee202d"/>
</svg>
