<svg xmlns="http://www.w3.org/2000/svg" width="43.531" height="43.532" viewBox="0 0 43.531 43.532">
  <g id="Group_2248" data-name="Group 2248" transform="translate(-1500.25 -1896.5)">
    <rect id="Rectangle_1582" data-name="Rectangle 1582" width="42.531" height="42.532" rx="8" transform="translate(1500.75 1897)" fill="none" stroke="#3f1626" stroke-width="1"/>
    <path id="Icon_awesome-instagram" data-name="Icon awesome-instagram" d="M9.547,6.89a4.9,4.9,0,1,0,4.9,4.9A4.888,4.888,0,0,0,9.547,6.89Zm0,8.079a3.183,3.183,0,1,1,3.183-3.183A3.189,3.189,0,0,1,9.547,14.969Zm6.238-8.28a1.142,1.142,0,1,1-1.142-1.142A1.139,1.139,0,0,1,15.786,6.69Zm3.243,1.159a5.652,5.652,0,0,0-1.543-4,5.689,5.689,0,0,0-4-1.543c-1.577-.089-6.3-.089-7.879,0a5.68,5.68,0,0,0-4,1.538,5.67,5.67,0,0,0-1.543,4c-.089,1.577-.089,6.3,0,7.879a5.652,5.652,0,0,0,1.543,4,5.7,5.7,0,0,0,4,1.543c1.577.089,6.3.089,7.879,0a5.651,5.651,0,0,0,4-1.543,5.689,5.689,0,0,0,1.543-4c.089-1.577.089-6.3,0-7.875Zm-2.037,9.566a3.223,3.223,0,0,1-1.815,1.815c-1.257.5-4.24.384-5.629.384s-4.376.111-5.629-.384A3.223,3.223,0,0,1,2.1,17.415c-.5-1.257-.384-4.24-.384-5.629S1.609,7.41,2.1,6.157A3.223,3.223,0,0,1,3.918,4.342c1.257-.5,4.24-.384,5.629-.384s4.376-.111,5.629.384a3.223,3.223,0,0,1,1.815,1.815c.5,1.257.384,4.24.384,5.629S17.49,16.162,16.992,17.415Z" transform="translate(1512.471 1906.479)" fill="#3f1626"/>
  </g>
</svg>
