<svg xmlns="http://www.w3.org/2000/svg" xmlns:xlink="http://www.w3.org/1999/xlink" width="146" height="146" viewBox="0 0 146 146">
  <defs>
    <filter id="Rectangle_547" x="0" y="0" width="146" height="146" filterUnits="userSpaceOnUse">
      <feOffset dy="3" input="SourceAlpha"/>
      <feGaussianBlur stdDeviation="8" result="blur"/>
      <feFlood flood-opacity="0.161"/>
      <feComposite operator="in" in2="blur"/>
      <feComposite in="SourceGraphic"/>
    </filter>
  </defs>
  <g id="Group_2116" data-name="Group 2116" transform="translate(-226 -1730)">
    <g transform="matrix(1, 0, 0, 1, 226, 1730)" filter="url(#Rectangle_547)">
      <rect id="Rectangle_547-2" data-name="Rectangle 547" width="98" height="98" rx="18" transform="translate(24 21)" fill="#3f1626"/>
    </g>
    <g id="Group_1287" data-name="Group 1287" transform="translate(992.283 792.242)">
      <path id="Path_4311" data-name="Path 4311" d="M-676.095,1020.4l3.266-.453c1.044-.144,2.09-.269,3.129-.443a.627.627,0,0,1,.775.392,27.568,27.568,0,0,1,3.242,14.327A27.808,27.808,0,0,1-687,1060.1a27.873,27.873,0,0,1-21.5-3.691,27.873,27.873,0,0,1-12.257-18.042,27.772,27.772,0,0,1,19.22-31.942,27.3,27.3,0,0,1,21.17,2.045.7.7,0,0,1,.434.864c-.288,1.89-.53,3.788-.792,5.681-.026.189-.068.376-.113.615a21.274,21.274,0,0,0-17.917-3.394,20.594,20.594,0,0,0-11.976,8.1,21.372,21.372,0,0,0,2.05,27.814,21.451,21.451,0,0,0,27.56,2.452,21.572,21.572,0,0,0,5.818-6.112,21.143,21.143,0,0,0,3.028-7.925,21.387,21.387,0,0,0-.269-8.433,21.592,21.592,0,0,0-3.549-7.729Z" transform="translate(0 -23.126)" fill="#fff"/>
      <path id="Path_4312" data-name="Path 4312" d="M-628.936,1072.53l-4.492,4.479a11.447,11.447,0,0,0-10.017-1.733,11.225,11.225,0,0,0-6.467,4.748,11.584,11.584,0,0,0,1.77,14.906,11.6,11.6,0,0,0,15.042.66,11.665,11.665,0,0,0,2.329-15.953l4.448-4.469a17.778,17.778,0,0,1-.862,23.568,17.871,17.871,0,0,1-12.47,5.649,17.87,17.87,0,0,1-12.808-4.833,17.939,17.939,0,0,1-.973-25.29A17.894,17.894,0,0,1-628.936,1072.53Z" transform="translate(-53.221 -76.529)" fill="#fff"/>
      <path id="Path_4313" data-name="Path 4313" d="M-582.755,1132.768l-5.512,5.5,2.408,2.4,5.465-5.513a7.966,7.966,0,0,1-1.139,10.256,8.081,8.081,0,0,1-11.093.053,8.09,8.09,0,0,1-.729-11.072A8.047,8.047,0,0,1-582.755,1132.768Z" transform="translate(-106.345 -129.635)" fill="#fff"/>
      <path id="Path_4314" data-name="Path 4314" d="M-432.241,977.758c.587,1.579,1.165,3.069,1.688,4.577a1.286,1.286,0,0,0,.874.9c1.523.53,3.03,1.111,4.61,1.7-.144.168-.245.3-.358.42q-3.537,3.542-7.085,7.072a1.525,1.525,0,0,1-.8.4c-2.468.358-4.942.693-7.413,1.031-.132.018-.269.021-.473.037l.4-3.027c.22-1.623.435-3.247.677-4.866a1.345,1.345,0,0,1,.329-.711q3.6-3.641,7.235-7.256C-432.478,977.949-432.385,977.885-432.241,977.758Z" transform="translate(-236.249 0)" fill="#fff"/>
    </g>
  </g>
</svg>
