<svg xmlns="http://www.w3.org/2000/svg" width="95" height="95" viewBox="0 0 95 95">
  <g id="Group_2278" data-name="Group 2278" transform="translate(11417 -4756)">
    <rect id="Rectangle_1849" data-name="Rectangle 1849" width="95" height="95" rx="11" transform="translate(-11417 4756)" fill="#3f1626"/>
    <g id="_24_7" data-name="24/7" transform="translate(-9192.072 4838.272)">
      <path id="Path_4474" data-name="Path 4474" d="M-2065.67-34.313c-.189,1.251-.308,2.517-.578,3.75a27.01,27.01,0,0,1-13.424,18.285,1.556,1.556,0,0,1-.215.093c-.016.006-.039,0-.113-.014a6.921,6.921,0,0,0-.4-4.082c1.51-1.329,3.044-2.507,4.373-3.884A22.326,22.326,0,0,0-2069.9-32.87a.744.744,0,0,0-.311-.583c-1.249-.772-2.52-1.508-3.784-2.257-.166-.1-.327-.2-.544-.34,1.456-.861,2.848-1.7,4.259-2.507a.644.644,0,0,0,.37-.8,22.809,22.809,0,0,0-6.32-12.813,22.593,22.593,0,0,0-12.673-6.707c-1.18-.2-1.184-.177-1.8.869q-.909,1.538-1.819,3.075c-.1.165-.211.321-.362.547-.822-1.392-1.638-2.7-2.375-4.055a.942.942,0,0,0-1.178-.537,23.163,23.163,0,0,0-15.248,9.426c-.14.19-.277.383-.413.572l-3.027-2.812c1.032-1.169,2.04-2.448,3.188-3.586a26.167,26.167,0,0,1,14.012-7.374,26.439,26.439,0,0,1,21.389,5,26.709,26.709,0,0,1,10.591,17.806c.114.721.188,1.449.28,2.174Z" transform="translate(-81.205)" fill="#d3c6b8"/>
      <path id="Path_4475" data-name="Path 4475" d="M-2207.92,51.054a5.492,5.492,0,0,1,1.806-4.369c.977-.871,1.852-1.868,2.885-2.663a4.175,4.175,0,0,1,5.722.086,14.872,14.872,0,0,1,4.483,6.07,4.273,4.273,0,0,1-.96,4.786c-.522.572-1.052,1.14-1.616,1.669a2.058,2.058,0,0,0-.622,2.377,12.724,12.724,0,0,0,1.381,2.814,52.107,52.107,0,0,0,11.906,11.919,7.529,7.529,0,0,0,3.16,1.465,2.1,2.1,0,0,0,1.949-.625c.6-.6,1.211-1.207,1.847-1.776a4.235,4.235,0,0,1,4.751-.862,14.614,14.614,0,0,1,6.153,4.651,4.126,4.126,0,0,1-.154,5.666,40.8,40.8,0,0,1-3.262,3.385,5.272,5.272,0,0,1-4.074,1.134,21.307,21.307,0,0,1-8.2-2.275,51.317,51.317,0,0,1-14.6-10.649,52.649,52.649,0,0,1-9.245-12.214A25.43,25.43,0,0,1-2207.86,52C-2207.89,51.688-2207.9,51.371-2207.92,51.054Z" transform="translate(0 -92.909)" fill="#d3c6b8"/>
      <path id="Path_4476" data-name="Path 4476" d="M-2032.09,83.664l-2.7-1.8a5.5,5.5,0,0,1,2.952-2.787,5.86,5.86,0,0,1,5.682.537,4.553,4.553,0,0,1,1.816,3.157,4.553,4.553,0,0,1-1.079,3.478,15.077,15.077,0,0,1-2.274,1.988c-.654.513-1.394.916-2.052,1.425a5.9,5.9,0,0,0-.81.949l.111.158h6.309V93.93h-10.352a6.15,6.15,0,0,1,2.056-6.422c.947-.783,1.961-1.485,2.939-2.23a6.851,6.851,0,0,0,.77-.653,1.419,1.419,0,0,0,.358-1.732,1.66,1.66,0,0,0-1.617-.78,2.313,2.313,0,0,0-1.57.873C-2031.72,83.189-2031.88,83.409-2032.09,83.664Z" transform="translate(-151.514 -124.107)" fill="#d3c6b8"/>
      <path id="Path_4477" data-name="Path 4477" d="M-1926.4,80.587V88.98h1.748v3.03h-1.743v3.654h-3.665V92.047h-6.668a5.022,5.022,0,0,1,.615-3.33c1.688-2.471,3.24-5.036,4.819-7.581a1.036,1.036,0,0,1,1.047-.562C-1929,80.612-1927.75,80.587-1926.4,80.587Zm-6.573,8.36h2.918v-4.6Z" transform="translate(-237.302 -125.852)" fill="#d3c6b8"/>
    </g>
  </g>
</svg>
