<svg xmlns="http://www.w3.org/2000/svg" width="35.06" height="35.061" viewBox="0 0 35.06 35.061">
  <g id="Group_1884" data-name="Group 1884" transform="translate(0.5 0.5)">
    <rect id="Rectangle_1713" data-name="Rectangle 1713" width="34.06" height="34.06" rx="5" transform="translate(0 0)" fill="none" stroke="#fff" stroke-width="1"/>
    <path id="Icon_awesome-instagram" data-name="Icon awesome-instagram" d="M7.644,5.963a3.921,3.921,0,1,0,3.921,3.921A3.915,3.915,0,0,0,7.644,5.963Zm0,6.47a2.549,2.549,0,1,1,2.549-2.549,2.554,2.554,0,0,1-2.549,2.549Zm5-6.63a.915.915,0,1,1-.915-.915A.912.912,0,0,1,12.64,5.8Zm2.6.928A4.526,4.526,0,0,0,14,3.527a4.555,4.555,0,0,0-3.2-1.235c-1.263-.072-5.047-.072-6.31,0a4.549,4.549,0,0,0-3.2,1.232,4.541,4.541,0,0,0-1.235,3.2c-.072,1.263-.072,5.047,0,6.31a4.526,4.526,0,0,0,1.235,3.2,4.561,4.561,0,0,0,3.2,1.235c1.263.072,5.047.072,6.31,0A4.526,4.526,0,0,0,14,16.242a4.556,4.556,0,0,0,1.235-3.2c.072-1.263.072-5.044,0-6.306Zm-1.631,7.661a2.581,2.581,0,0,1-1.454,1.454,16.853,16.853,0,0,1-4.508.307,16.985,16.985,0,0,1-4.508-.307,2.581,2.581,0,0,1-1.454-1.454,16.854,16.854,0,0,1-.307-4.508,16.986,16.986,0,0,1,.307-4.508A2.581,2.581,0,0,1,3.137,3.923a16.854,16.854,0,0,1,4.508-.307,16.985,16.985,0,0,1,4.508.307,2.581,2.581,0,0,1,1.454,1.454,16.854,16.854,0,0,1,.307,4.508A16.845,16.845,0,0,1,13.606,14.392Z" transform="translate(9.278 7.036)" fill="#fff"/>
  </g>
</svg>
