<svg xmlns="http://www.w3.org/2000/svg" xmlns:xlink="http://www.w3.org/1999/xlink" width="35.06" height="35.061" viewBox="0 0 35.06 35.061">
  <defs>
    <clipPath id="clip-path">
      <rect id="Rectangle_341" data-name="Rectangle 341" width="18.468" height="18.468" fill="#fff"/>
    </clipPath>
  </defs>
  <g id="Group_1885" data-name="Group 1885" transform="translate(0.5 0.5)">
    <rect id="Rectangle_339" data-name="Rectangle 339" width="34.06" height="34.06" rx="5" transform="translate(0)" fill="none" stroke="#fff" stroke-width="1"/>
    <g id="Group_165" data-name="Group 165" transform="translate(7.796 7.796)" clip-path="url(#clip-path)">
      <path id="Path_338" data-name="Path 338" d="M129.2,176.16l-2.394,0a4.206,4.206,0,0,0-4.43,4.545v2.1H119.97a.377.377,0,0,0-.377.377v3.036a.376.376,0,0,0,.377.376h2.408v7.662a.376.376,0,0,0,.377.377H125.9a.377.377,0,0,0,.377-.377v-7.662h2.815a.376.376,0,0,0,.377-.376v-3.036a.377.377,0,0,0-.377-.377h-2.816v-1.777c0-.854.2-1.287,1.316-1.287H129.2a.376.376,0,0,0,.376-.377v-2.819A.377.377,0,0,0,129.2,176.16Z" transform="translate(-115.352 -176.156)" fill="#fff"/>
    </g>
  </g>
</svg>
