<svg xmlns="http://www.w3.org/2000/svg" width="35.06" height="35.061" viewBox="0 0 35.06 35.061">
  <g id="Group_1886" data-name="Group 1886" transform="translate(0.5 0.5)">
    <rect id="Rectangle_1715" data-name="Rectangle 1715" width="34.06" height="34.06" rx="5" fill="none" stroke="#fff" stroke-width="1"/>
    <path id="Icon_akar-whatsapp-fill" data-name="Icon akar-whatsapp-fill" d="M12.026,9.932c-.206-.1-1.215-.6-1.4-.668s-.325-.1-.462.1-.53.667-.649.8-.24.154-.445.052A5.634,5.634,0,0,1,7.417,9.2,6.177,6.177,0,0,1,6.276,7.783c-.119-.205-.013-.316.09-.418s.205-.24.308-.359a1.391,1.391,0,0,0,.205-.343A.374.374,0,0,0,6.861,6.3C6.81,6.2,6.4,5.19,6.229,4.779s-.336-.345-.461-.352-.257-.007-.394-.007a.752.752,0,0,0-.547.257,2.3,2.3,0,0,0-.718,1.712,3.993,3.993,0,0,0,.838,2.123,9.149,9.149,0,0,0,3.505,3.1,11.725,11.725,0,0,0,1.17.432,2.8,2.8,0,0,0,1.293.081,2.115,2.115,0,0,0,1.385-.976,1.72,1.72,0,0,0,.119-.976c-.051-.086-.188-.137-.394-.24ZM8.282,15.044h0A6.817,6.817,0,0,1,4.8,14.092l-.248-.147-2.584.678.69-2.519L2.5,11.845a6.826,6.826,0,1,1,5.783,3.2ZM14.091,2.409A8.214,8.214,0,0,0,1.165,12.318L0,16.573l4.353-1.142a8.2,8.2,0,0,0,3.925,1h0A8.216,8.216,0,0,0,14.091,2.409" transform="translate(9.133 8.744)" fill="#fff"/>
  </g>
</svg>
