<svg xmlns="http://www.w3.org/2000/svg" xmlns:xlink="http://www.w3.org/1999/xlink" width="63.808" height="63.809" viewBox="0 0 63.808 63.809">
  <defs>
    <filter id="Rectangle_339" x="0" y="0" width="63.808" height="63.809" filterUnits="userSpaceOnUse">
      <feOffset dy="3" input="SourceAlpha"/>
      <feGaussianBlur stdDeviation="3" result="blur"/>
      <feFlood flood-opacity="0.161"/>
      <feComposite operator="in" in2="blur"/>
      <feComposite in="SourceGraphic"/>
    </filter>
    <clipPath id="clip-path">
      <rect id="Rectangle_341" data-name="Rectangle 341" width="24.839" height="24.839" fill="#3f1626"/>
    </clipPath>
  </defs>
  <g id="Group_2236" data-name="Group 2236" transform="translate(-241 -834.434)">
    <g transform="matrix(1, 0, 0, 1, 241, 834.43)" filter="url(#Rectangle_339)">
      <rect id="Rectangle_339-2" data-name="Rectangle 339" width="45.808" height="45.809" rx="5" transform="translate(9 6)" fill="#fff"/>
    </g>
    <g id="Group_165" data-name="Group 165" transform="translate(260.484 850.919)" clip-path="url(#clip-path)">
      <path id="Path_338" data-name="Path 338" d="M132.516,176.161l-3.22-.005c-3.619,0-5.957,2.4-5.957,6.113v2.819H120.1a.506.506,0,0,0-.507.507v4.083a.506.506,0,0,0,.507.505h3.239v10.3a.506.506,0,0,0,.507.507h4.225a.507.507,0,0,0,.507-.507v-10.3h3.787a.506.506,0,0,0,.507-.505v-4.083a.507.507,0,0,0-.507-.507h-3.788V182.7c0-1.149.273-1.731,1.77-1.731h2.17a.506.506,0,0,0,.506-.507v-3.792A.507.507,0,0,0,132.516,176.161Z" transform="translate(-113.889 -176.156)" fill="#3f1626"/>
    </g>
  </g>
</svg>
