<svg xmlns="http://www.w3.org/2000/svg" width="52.21" height="21.532" viewBox="0 0 52.21 21.532">
  <path id="Icon_awesome-stripe" data-name="Icon awesome-stripe" d="M13.461,10.408l-3.533.751L9.912,22.777a3.5,3.5,0,0,0,3.761,3.533,5.635,5.635,0,0,0,2.546-.481V23.071c-.465.188-2.75.857-2.75-1.281V16.633h2.75V13.549H13.47Zm7.27,4.21-.22-1.069H17.378v12.5h3.615V17.637a2.579,2.579,0,0,1,2.766-.759V13.549A2.476,2.476,0,0,0,20.731,14.618Zm7.531-5.9-3.639.775v2.954l3.639-.775Zm-24.6,8.51c0-.563.473-.783,1.232-.791a8.118,8.118,0,0,1,3.606.93V13.957A9.669,9.669,0,0,0,4.9,13.3c-2.937,0-4.9,1.534-4.9,4.1,0,4.014,5.507,3.362,5.507,5.091,0,.669-.579.889-1.387.889A9.139,9.139,0,0,1,.162,22.214v3.264a10.041,10.041,0,0,0,3.957.824C7.13,26.3,9.2,25.013,9.2,22.4c0-4.316-5.54-3.541-5.54-5.173Zm48.555,2.717c0-3.712-1.8-6.642-5.238-6.642s-5.54,2.929-5.54,6.617c0,4.365,2.472,6.38,6,6.38a8.117,8.117,0,0,0,4.014-.938V22.638a7.664,7.664,0,0,1-3.557.8c-1.412,0-2.652-.5-2.815-2.195h7.09c.016-.188.049-.946.049-1.3Zm-7.172-1.371c0-1.632,1-2.317,1.909-2.317.889,0,1.836.685,1.836,2.317ZM35.834,13.3a4.084,4.084,0,0,0-2.839,1.134l-.188-.9h-3.19v16.71l3.623-.767.008-4.1a4.059,4.059,0,0,0,2.562.914c2.595,0,4.961-1.893,4.961-6.495.008-4.21-2.391-6.5-4.936-6.5ZM34.969,23.3a2.176,2.176,0,0,1-1.705-.685l-.024-5.385a2.174,2.174,0,0,1,1.73-.718c1.322,0,2.236,1.485,2.236,3.378C37.213,21.839,36.315,23.3,34.969,23.3Zm-10.338,2.75H28.27v-12.5H24.631Z" transform="translate(-0.007 -8.719)" fill="#fcfcfc"/>
</svg>
