<svg xmlns="http://www.w3.org/2000/svg" width="33.351" height="25.94" viewBox="0 0 33.351 25.94">
  <path id="Icon_awesome-cc-mastercard" data-name="Icon awesome-cc-mastercard" d="M27.961,24.167a.649.649,0,1,1-.649-.677A.647.647,0,0,1,27.961,24.167Zm-18-.677a.679.679,0,1,0,.631.677A.64.64,0,0,0,9.965,23.489Zm6.8-.017a.537.537,0,0,0-.55.5h1.106A.532.532,0,0,0,16.768,23.472Zm6.242.017a.678.678,0,1,0,.648.677A.64.64,0,0,0,23.01,23.489ZM29.142,25c0,.017.017.029.017.064,0,.017-.017.029-.017.064a.2.2,0,0,0-.029.046.075.075,0,0,1-.064.029c-.017.017-.029.017-.064.017a.115.115,0,0,1-.064-.017c-.017,0-.029-.017-.046-.029s-.029-.029-.029-.046a.105.105,0,0,1-.017-.064c0-.029,0-.046.017-.064a.109.109,0,0,1,.029-.064.2.2,0,0,1,.046-.029.105.105,0,0,1,.064-.017c.029,0,.046,0,.064.017s.046.017.064.029S29.124,24.971,29.142,25Zm-.127.081c.029,0,.029-.017.046-.017a.07.07,0,0,0,0-.093c-.017,0-.029-.017-.064-.017H28.9v.2h.046v-.081h.017l.064.081h.046l-.064-.075ZM33.351,5.1V25.481a2.78,2.78,0,0,1-2.779,2.779H2.779A2.78,2.78,0,0,1,0,25.481V5.1A2.78,2.78,0,0,1,2.779,2.32H30.572A2.78,2.78,0,0,1,33.351,5.1ZM3.706,13.183a8.016,8.016,0,0,0,12.449,6.682,8.635,8.635,0,0,1,0-13.346A8.016,8.016,0,0,0,3.706,13.183Zm12.97,6.3a8.017,8.017,0,0,0,0-12.594A8.017,8.017,0,0,0,16.676,19.482ZM8.436,23.9a.811.811,0,0,0-.851-.851.828.828,0,0,0-.741.376.768.768,0,0,0-.706-.376.735.735,0,0,0-.614.313v-.255H5.049v2.125h.475c0-1.094-.145-1.749.521-1.749.591,0,.475.591.475,1.749h.457c0-1.06-.145-1.749.521-1.749.591,0,.475.579.475,1.749h.475V23.9Zm2.6-.793h-.457v.255a.835.835,0,0,0-.677-.313,1.119,1.119,0,0,0,0,2.235.8.8,0,0,0,.677-.313v.266h.457Zm2.345,1.482c0-.869-1.326-.475-1.326-.88,0-.33.689-.278,1.071-.064l.191-.376c-.544-.353-1.749-.347-1.749.475s1.326.481,1.326.869c0,.365-.782.336-1.2.046l-.2.365C12.142,25.464,13.381,25.371,13.381,24.589Zm2.05.538-.127-.394c-.22.122-.706.255-.706-.237v-.961h.759v-.428H14.6v-.648h-.475v.648h-.44v.423h.44V24.5c0,1.019,1,.834,1.309.631Zm.77-.776h1.592c0-.938-.428-1.309-1.007-1.309a1.043,1.043,0,0,0-1.054,1.117,1.155,1.155,0,0,0,1.957.822l-.22-.347C17.017,25.006,16.334,24.971,16.2,24.352Zm3.422-1.245a.679.679,0,0,0-.88.255v-.255h-.475v2.125h.475v-1.2a.483.483,0,0,1,.741-.486Zm.614,1.06c0-.66.672-.874,1.2-.486l.22-.376a1.146,1.146,0,1,0,0,1.737l-.22-.376C20.9,25.041,20.237,24.815,20.237,24.167Zm3.862-1.06h-.475v.255a1.053,1.053,0,1,0,0,1.61v.266H24.1Zm1.951,0a.7.7,0,0,0-.88.255v-.255h-.457v2.125h.457v-1.2a.486.486,0,0,1,.741-.486Zm2.333-.863h-.457v1.118a1.053,1.053,0,1,0,0,1.61v.266h.457Zm.44-4.348v.266h.046V17.9h.11v-.046h-.266V17.9h.11Zm.382,7.168a.177.177,0,0,0-.017-.093c-.017-.017-.029-.046-.046-.064s-.046-.029-.064-.046c-.029,0-.064-.017-.093-.017a.615.615,0,0,1-.081.017.3.3,0,0,0-.064.046.091.091,0,0,0-.046.064.177.177,0,0,0-.017.093.168.168,0,0,0,.017.081.091.091,0,0,0,.046.064.2.2,0,0,0,.064.046.157.157,0,0,0,.081.017.177.177,0,0,0,.093-.017c.017-.017.046-.029.064-.046s.029-.046.046-.064A.168.168,0,0,0,29.206,25.064Zm.185-7.22H29.31l-.093.2-.093-.2h-.081v.313h.046v-.237l.093.2h.064l.081-.2v.237h.064Zm.255-4.661A8.016,8.016,0,0,0,17.2,6.512a8.635,8.635,0,0,1,0,13.346,8.016,8.016,0,0,0,12.449-6.676Z" transform="translate(0 -2.32)" fill="#fcfcfc"/>
</svg>
