<svg xmlns="http://www.w3.org/2000/svg" width="40.75" height="25.462" viewBox="0 0 40.75 25.462">
  <path id="Icon_awesome-amazon-pay" data-name="Icon awesome-amazon-pay" d="M.984,21.925c.153-.28.347-.327.647-.167.693.373,1.373.76,2.08,1.113a39.728,39.728,0,0,0,8.494,3.087,41.11,41.11,0,0,0,4.214.787,40.224,40.224,0,0,0,6.334.347c1.16-.027,2.32-.12,3.474-.253a40.247,40.247,0,0,0,10.887-2.854.951.951,0,0,1,.607-.08.539.539,0,0,1,.273.927,4.667,4.667,0,0,1-.64.493,25.53,25.53,0,0,1-6.64,3.194,31.555,31.555,0,0,1-5.007,1.173,28.735,28.735,0,0,1-3.547.32,1.42,1.42,0,0,0-.167.02H20.586a1.418,1.418,0,0,0-.167-.02c-.24-.013-.48-.02-.713-.027a28.423,28.423,0,0,1-3.36-.353,29.9,29.9,0,0,1-5.36-1.393,29.557,29.557,0,0,1-9.707-5.8,2.311,2.311,0,0,1-.293-.38ZM11.518,4.577l-.287.04A5.4,5.4,0,0,0,8.7,5.624c-.16.113-.307.233-.473.36A.286.286,0,0,1,8.2,5.89c-.027-.18-.053-.367-.087-.547A.449.449,0,0,0,7.6,4.9H6.838c-.46,0-.547.087-.547.547V19.4c0,.067,0,.133.007.2a.325.325,0,0,0,.327.333c.467.007.94.007,1.407,0a.33.33,0,0,0,.333-.333c.007-.067.007-.133.007-.2V14.578c.073.06.113.093.147.127a4.682,4.682,0,0,0,4.067,1.027,4.049,4.049,0,0,0,2.92-2.327,6.819,6.819,0,0,0,.687-2.94,7.64,7.64,0,0,0-.54-3.32,3.927,3.927,0,0,0-2.927-2.46c-.213-.047-.433-.067-.653-.1-.187-.007-.367-.007-.553-.007ZM8.358,7.371a.232.232,0,0,1,.113-.22,4.6,4.6,0,0,1,3.04-.88A2.414,2.414,0,0,1,13.745,8a6.341,6.341,0,0,1,.327,2.2,6.6,6.6,0,0,1-.267,2.04,2.577,2.577,0,0,1-2.84,1.9,4.623,4.623,0,0,1-2.494-.927.238.238,0,0,1-.113-.22c.007-.94,0-1.873,0-2.814s.007-1.867,0-2.807ZM22.073,4.577c-.067.007-.133.02-.193.027a9.867,9.867,0,0,0-1.927.273c-.407.107-.8.253-1.193.387a.481.481,0,0,0-.353.513c.007.22-.007.44,0,.66.007.32.14.407.453.327.52-.133,1.04-.28,1.567-.38a7.377,7.377,0,0,1,2.48-.093,1.615,1.615,0,0,1,1.12.56,1.845,1.845,0,0,1,.353,1.093c.02.553.013,1.107.02,1.66a.522.522,0,0,1-.013.093c-.033-.007-.06,0-.087-.007a12.038,12.038,0,0,0-2.133-.327,5.7,5.7,0,0,0-2.22.26,3.251,3.251,0,0,0-1.96,1.66,3.49,3.49,0,0,0-.26,2.047,2.739,2.739,0,0,0,1.427,2.113,3.86,3.86,0,0,0,2.527.36,5.485,5.485,0,0,0,2.687-1.227.491.491,0,0,1,.107-.073c.04.253.073.493.12.733a.379.379,0,0,0,.36.347c.36.007.727.007,1.087,0a.323.323,0,0,0,.32-.313,1.748,1.748,0,0,0,.007-.187V8.017a5.334,5.334,0,0,0-.06-.86A2.647,2.647,0,0,0,25.039,5.13a3.847,3.847,0,0,0-1.453-.473c-.24-.033-.48-.053-.72-.087-.26.007-.527.007-.793.007Zm2.333,8.514a.222.222,0,0,1-.1.2,5.077,5.077,0,0,1-2.494.993,2.288,2.288,0,0,1-1.12-.12,1.339,1.339,0,0,1-.827-.887,2.193,2.193,0,0,1-.007-1.293,1.536,1.536,0,0,1,1.093-1.04,4.089,4.089,0,0,1,1.653-.147c.56.047,1.107.153,1.667.227.107.013.14.067.14.173-.007.32,0,.633,0,.953S24.4,12.778,24.406,13.091Zm17.328,8.627c-.067-.333-.32-.46-.607-.553a5.9,5.9,0,0,0-1.4-.26,9.822,9.822,0,0,0-2.614.127,6.884,6.884,0,0,0-2.667,1.04.917.917,0,0,0-.247.233.341.341,0,0,0-.033.267c.027.1.14.127.24.12a1.08,1.08,0,0,0,.147-.007c.52-.053,1.033-.113,1.553-.167a13.112,13.112,0,0,1,2.287-.06,4.777,4.777,0,0,1,.96.18.672.672,0,0,1,.507.693,4.9,4.9,0,0,1-.233,1.553,28.173,28.173,0,0,1-1.053,3.007,1.172,1.172,0,0,0-.067.2c-.033.193.08.32.273.273a.7.7,0,0,0,.32-.167,9.727,9.727,0,0,0,.847-.893A9,9,0,0,0,41.594,23.6c.053-.24.093-.487.14-.727V21.718ZM32.927,13.5q-1.29-3.57-2.58-7.147c-.133-.38-.28-.753-.42-1.127a.442.442,0,0,0-.427-.32C28.993,4.9,28.486,4.9,27.973,4.9c-.167,0-.247.133-.213.3a2.875,2.875,0,0,0,.127.407q1.96,4.85,3.94,9.7a.9.9,0,0,1,.013.787c-.22.487-.393,1-.62,1.487a1.534,1.534,0,0,1-1.013.887,2.809,2.809,0,0,1-1.027.073c-.167-.013-.333-.053-.5-.067-.227-.013-.34.087-.347.32s-.007.442,0,.66c.007.367.133.533.493.593a7.213,7.213,0,0,0,1.127.133,2.794,2.794,0,0,0,2.634-1.427,8.775,8.775,0,0,0,.613-1.227q2.37-5.98,4.707-11.974a1.775,1.775,0,0,0,.107-.367c.027-.187-.06-.293-.247-.293-.44-.007-.887,0-1.327,0a.5.5,0,0,0-.513.347c-.033.093-.073.18-.107.273L33.5,12.184c-.167.48-.34.967-.513,1.48-.027-.073-.04-.113-.06-.16Z" transform="translate(-0.984 -4.57)" fill="#fcfcfc"/>
</svg>
