<svg xmlns="http://www.w3.org/2000/svg" xmlns:xlink="http://www.w3.org/1999/xlink" width="43.531" height="43.532" viewBox="0 0 43.531 43.532">
  <defs>
    <clipPath id="clip-path">
      <rect id="Rectangle_345" data-name="Rectangle 345" width="17.518" height="17.518" fill="#3f1626"/>
    </clipPath>
  </defs>
  <g id="Group_2250" data-name="Group 2250" transform="translate(-1626.25 -1896.5)">
    <rect id="Rectangle_1584" data-name="Rectangle 1584" width="42.531" height="42.532" rx="8" transform="translate(1626.75 1897)" fill="none" stroke="#3f1626" stroke-width="1"/>
    <g id="Group_167" data-name="Group 167" transform="translate(1639.256 1907.609)" clip-path="url(#clip-path)">
      <path id="Path_340" data-name="Path 340" d="M258.917,182.406H255V194.45h3.917Z" transform="translate(-255 -176.932)" fill="#3f1626"/>
      <path id="Path_341" data-name="Path 341" d="M270.364,182.548c-.041-.013-.081-.028-.124-.04s-.106-.021-.159-.03a3.472,3.472,0,0,0-.7-.072,5.443,5.443,0,0,0-4.21,2.3v-2.3H261.25V194.45h3.918V187.88s2.961-4.123,4.21-1.095v7.664h3.916v-8.128A3.905,3.905,0,0,0,270.364,182.548Z" transform="translate(-255.776 -176.932)" fill="#3f1626"/>
      <path id="Path_342" data-name="Path 342" d="M256.916,179.988A1.916,1.916,0,1,0,255,178.072,1.915,1.915,0,0,0,256.916,179.988Z" transform="translate(-255 -176.156)" fill="#3f1626"/>
    </g>
  </g>
</svg>
