<svg xmlns="http://www.w3.org/2000/svg" width="248.041" height="254.385" viewBox="0 0 248.041 254.385">
  <path id="Path_402" data-name="Path 402" d="M462.881,735.617c-5.8-5.39-16.433-4.423-19.477,3.177-.046.014-.086.01-.136.029-17-13.621-36.673-25.112-54.746-37.369a24.638,24.638,0,0,0,2.415-6.678c.95-4.549,1.364-9.935-1.59-13.869a8.533,8.533,0,0,0-8.07-3.562,15.484,15.484,0,0,0-4.447-.825c.574-22.212-2.1-44.685-4.08-66.822a3.365,3.365,0,0,0,.677-.107c9.047-2.377,15.9-11.048,14.49-20.643-1.4-9.506-11.085-16.819-20.6-15.4-8.93,1.334-16.187,9.9-15.507,19,.606,8.109,7.5,15.99,15.8,15.712,1.316,22.771,1.907,45.989,5.773,68.483a17.4,17.4,0,0,0-13.466,11.46,17.616,17.616,0,0,0,.265,11.876c-7.69,5.083-14.079,11.508-20.779,17.844-7.412,7.011-15,13.943-22.065,21.3a2.539,2.539,0,0,0-.889.083c-3.928-6.558-13.666-7.935-20.219-4.147-7.974,4.61-12.116,15.875-7.49,24.189,4.149,7.457,14.349,11.013,22.128,7.289,8.153-3.9,10.664-13.973,9.253-22.428a3.216,3.216,0,0,0,.662-.446c7.834-6.932,15.219-14.453,22.684-21.782,6.345-6.229,12.742-12.171,18-19.309a15.389,15.389,0,0,0,10.17,7.246,14.566,14.566,0,0,0,15.091-5.7c15.542,13.669,33.561,28.306,52.31,37.348-5.061,4.917-5.4,13.423-.968,19.42,6.08,8.229,17.3,7.71,23.946.576C468.57,754.529,470.434,742.64,462.881,735.617ZM371.456,603.9a2.61,2.61,0,0,0-3.551.237c-4.791-2.2-9.218-5.578-10-11.185-.9-6.446,4.458-13.294,11.051-13.813,15.558-1.23,17.441,21.206,2.866,24.636A2.806,2.806,0,0,0,371.456,603.9Zm-60.73,156.187c-4.587,3.96-12.126,2.639-15.838-1.9-9.627-11.784,11-28.081,19.525-14.554a1.705,1.705,0,0,0,.257.277C315.366,749.547,315.371,756.073,310.726,760.086ZM383.8,698.953c-2.833,5.344-9.1,7.414-14.383,4.05-4.976-3.172-5.808-10.355-2.949-15.221,2.438-4.151,6.684-6.075,11.15-7.03a2.579,2.579,0,0,0,2.969,1.78C389.273,680.37,385.813,695.156,383.8,698.953Zm73.59,59.132c-4.562,4.333-11.52,4.18-15.056-1.516-2.917-4.7-1.236-9.6,1.641-13.695a2.471,2.471,0,0,0,3.6-.717c3.391-5.517,9.906-5.782,13.314-.23C464.083,747.139,461.473,754.2,457.388,758.085Z" transform="matrix(0.899, -0.438, 0.438, 0.899, -509.128, -310.276)" fill="#ee202d" opacity="0.15"/>
</svg>
