<svg xmlns="http://www.w3.org/2000/svg" width="95" height="95" viewBox="0 0 95 95">
  <g id="Group_2276" data-name="Group 2276" transform="translate(11130 -4756)">
    <rect id="Rectangle_1851" data-name="Rectangle 1851" width="95" height="95" rx="11" transform="translate(-11130 4756)" fill="#3f1626"/>
    <g id="Premium_Products" data-name="Premium Products" transform="translate(-9610.581 4579.98) rotate(-11)">
      <path id="Path_4478" data-name="Path 4478" d="M-1404.27-51.112c.093-.177.206-.375.3-.579q3.06-6.392,6.123-12.782a1.187,1.187,0,0,0,.045-1.076c-.372-.877-.676-1.782-1.038-2.664a.642.642,0,0,1,.193-.867q10.225-8.852,20.43-17.726c1.505-1.307,2.984-2.648,4.524-3.914,1.074-.882,2.231-1.663,3.351-2.49l.155.164c-.132.169-.259.343-.4.506q-11.08,13.093-22.156,26.188a4.9,4.9,0,0,0-.688,1.057q-3.916,8.307-7.818,16.621a1.427,1.427,0,0,0-.042,1.189,7.028,7.028,0,0,1-1.128,6.617,8.928,8.928,0,0,1-5.42,3.635c-1.518.359-2.158,1.582-2.67,2.844-.46,1.133-.761,2.332-1.113,3.508-.252.843-.436.922-1.184.444a1.407,1.407,0,0,1-.693-1.722,23.341,23.341,0,0,0,.5-2.936,5.7,5.7,0,0,0-.3-1.99,2.215,2.215,0,0,0-.761-1.131,6.634,6.634,0,0,1-2.167-8.426,9.114,9.114,0,0,1,9.791-5.135A22.3,22.3,0,0,1-1404.27-51.112Zm-10.4,6.964a4.458,4.458,0,0,0,2.906,4.613,6.873,6.873,0,0,0,8.166-3.584,4.419,4.419,0,0,0,.119-4,4.419,4.419,0,0,0-3.154-2.456,6.184,6.184,0,0,0-4.6.708,6.065,6.065,0,0,0-3.437,4.715Zm19.571-22.663a1.151,1.151,0,0,0,1.1-1.171,1.154,1.154,0,0,0-1.166-1.1,1.192,1.192,0,0,0-1.11,1.173,1.176,1.176,0,0,0,1.175,1.1Z" transform="translate(-90.121)" fill="#d3c6b8"/>
      <path id="Path_4479" data-name="Path 4479" d="M-1489.23,108.269l-15.035,1.225a7.882,7.882,0,0,1,.13,3.775,8.211,8.211,0,0,1-1.592,3.427.893.893,0,0,0-.187,1.063,1.721,1.721,0,0,1-.623,2.033,1.726,1.726,0,0,1-2.077.026.837.837,0,0,0-1.022-.084,7.354,7.354,0,0,1-6.5-.191,6.628,6.628,0,0,1-3.18-7.509,9.074,9.074,0,0,1,8.794-7.024,6.556,6.556,0,0,1,4.085,1.379,1.309,1.309,0,0,0,.9.225q7.041-1.056,14.074-2.172c.548-.087.827,0,1.012.579C-1490.11,106.088-1489.67,107.122-1489.23,108.269Zm-21.506-1.07a6.9,6.9,0,0,0-6.5,5.753,4.394,4.394,0,0,0,1.027,3.769,4.394,4.394,0,0,0,3.622,1.462,6.9,6.9,0,0,0,6.333-5.567,4.4,4.4,0,0,0-.888-3.823,4.4,4.4,0,0,0-3.588-1.593Z" transform="translate(0 -173.529)" fill="#d3c6b8"/>
      <path id="Path_4480" data-name="Path 4480" d="M-1207.96-2.737q4.088-4.832,8.182-9.659a1.491,1.491,0,0,1,.511-.357q8.98-4.114,17.965-8.217c.109-.05.225-.086.458-.174a5.284,5.284,0,0,1-1.713,2.23q-12.4,7.93-24.756,15.924c-.189.122-.384.235-.576.351Z" transform="translate(-273.576 -63.28)" fill="#d3c6b8"/>
    </g>
  </g>
</svg>
