<svg xmlns="http://www.w3.org/2000/svg" width="95" height="95" viewBox="0 0 95 95">
  <g id="Group_2277" data-name="Group 2277" transform="translate(11263 -4756)">
    <rect id="Rectangle_1850" data-name="Rectangle 1850" width="95" height="95" rx="11" transform="translate(-11263 4756)" fill="#3f1626"/>
    <g id="Supply" transform="translate(-10847.074 4755.863)">
      <path id="Path_4481" data-name="Path 4481" d="M-342.426,47.768V59.536c-1.407.01-2.814.033-4.22.022-.375,0-.479.118-.5.483a7,7,0,0,1-5.579,6.414,6.95,6.95,0,0,1-7.684-3.81,22.864,22.864,0,0,1-.926-3.049h-13.836c-.016.106-.035.185-.04.265a6.978,6.978,0,0,1-6.021,6.651,7,7,0,0,1-5.361-1.468,7,7,0,0,1-2.6-4.912c-.023-.463-.167-.636-.617-.569a2.775,2.775,0,0,1-.4,0H-393.9c-.011-.2-.026-.343-.026-.49q0-12.519.006-25.038a5.171,5.171,0,0,1,.173-1.388,4.622,4.622,0,0,1,4.787-3.5h32.5v9.36h.587c1.961,0,3.922.01,5.882-.009a.948.948,0,0,1,.87.429q3.163,4.255,6.358,8.487a4.094,4.094,0,0,0,.338.354Zm-14.028.07h10.371a2.251,2.251,0,0,0-.121-.2c-1.406-1.792-2.807-3.586-4.229-5.365a.787.787,0,0,0-.545-.237c-1.691-.018-3.383-.011-5.075-.009-.128,0-.255.023-.4.038ZM-385.72,59.576a3.5,3.5,0,0,0,1.033,2.478,3.5,3.5,0,0,0,2.484,1.017,3.5,3.5,0,0,0,3.482-3.477,3.5,3.5,0,0,0-1.013-2.485,3.5,3.5,0,0,0-2.476-1.037,3.5,3.5,0,0,0-2.481,1.024,3.505,3.505,0,0,0-1.029,2.48Zm35.091-.009a3.5,3.5,0,0,0-1.032-2.481,3.5,3.5,0,0,0-2.486-1.019,3.5,3.5,0,0,0-2.473,1.043,3.5,3.5,0,0,0-1.007,2.488,3.493,3.493,0,0,0,3.491,3.469,3.5,3.5,0,0,0,2.479-1.023,3.5,3.5,0,0,0,1.027-2.477Z" fill="#d3c6b8"/>
    </g>
  </g>
</svg>
